# xmcd
#
# Track frame offsets: 
#        150
#        13490
#        27773
#        42530
#        55224
#        67154
#        79212
#        92865
#        105579
#        118927
#        131787
#        143448
#        156085
#        168298
#        179434
#        192084
#        204880
#        216145
#        228433
#        240796
#        253557
#        264808
#        276493
#        287827
#        299609
#        311985
#        323720
#        337225
#
# Disc length: 4671 seconds
#
# Revision: 0
# Processed by: cddbd v1.5.2PL0 Copyright (c) Steve Scherf et al.
# Submitted via: ExactAudioCopy v0.95b4
#
DISCID=ac123d1c
DTITLE=Bobby 'Blue' Bland and Little Junior Parker - The Earls Of Duke
DYEAR=2007
DGENRE=Blues
TTITLE0=No Blow, No Show - Bobby 'Blue' Bland
TTITLE1=I.O.U. Blues - Bobby 'Blue' Bland
TTITLE2=Lovin' Blues - Bobby 'Blue' Bland
TTITLE3=Wise Man Blues - Bobby 'Blue' Bland
TTITLE4=Army Blues - Bobby 'Blue' Bland
TTITLE5=Please Baby Blues - Little Junior Parker
TTITLE6=Dirty Friend Blues - Little Junior Parker
TTITLE7=Can't Understand - Little Junior Parker
TTITLE8=Sittin', Drinkin' and Thinkin' - Little Junior Parker
TTITLE9=Can You Tell Me Baby - Little Junior Parker
TTITLE10=Backtracking - Little Junior Parker
TTITLE11=I Wanna Ramble - Little Junior Parker
TTITLE12=It's My Life, Baby - Bobby 'Blue' Bland
TTITLE13=Honey Bee - Bobby 'Blue' Bland
TTITLE14=Time Out - Bobby 'Blue' Bland
TTITLE15=Driving Me Mad - Little Junior Parker
TTITLE16=There Better Be No Feet In Them Shoes - Little Junior Parker
TTITLE17=I'm Tender - Little Junior Parker
TTITLE18=Woke Up Screaming - Bobby 'Blue' Bland
TTITLE19=A Million Miles From Nowhere - Bobby 'Blue' Bland
TTITLE20=You've Got Bad Intentions - Bobby 'Blue' Bland
TTITLE21=I Can't Put You Down, Baby - Bobby 'Blue' Bland
TTITLE22=Mother-in-law Blues - Little Junior Parker
TTITLE23=I Don't Believe - Bobby 'Blue' Bland
TTITLE24=I Learned My Lesson - Bobby 'Blue' Bland
TTITLE25=Next Time You See Me - Little Junior Parker
TTITLE26=Pretty Baby - Little Junior Parker
TTITLE27=That's Alright - Little Junior Parker
EXTD=
EXTT0=
EXTT1=
EXTT2=
EXTT3=
EXTT4=
EXTT5=
EXTT6=
EXTT7=
EXTT8=
EXTT9=
EXTT10=
EXTT11=
EXTT12=
EXTT13=
EXTT14=
EXTT15=
EXTT16=
EXTT17=
EXTT18=
EXTT19=
EXTT20=
EXTT21=
EXTT22=
EXTT23=
EXTT24=
EXTT25=
EXTT26=
EXTT27=
PLAYORDER=
